<svg xmlns="http://www.w3.org/2000/svg" xmlns:xlink="http://www.w3.org/1999/xlink" version="1.1" x="0px" y="0px" viewBox="0 0 5000 6250" style="enable-background:new 0 0 5000 5000;" xml:space="preserve"><g><g><path fill="#ffff" d="M1758.4,2553c-14.6,0-26.4-11.9-26.4-26.4v-185.4c0-14.6,11.9-26.4,26.4-26.4s26.4,11.9,26.4,26.4v185.4    C1785,2541.1,1773.1,2553,1758.4,2553z"/><path 
fill="#ffff"
d="M4115.5,4115.6c-14.6,0-26.4-11.9-26.4-26.4v-211.8H911v211.8c0,14.6-11.9,26.4-26.4,26.4s-26.4-11.9-26.4-26.4v-238.4    c0-14.6,11.9-26.4,26.4-26.4h3231c14.6,0,26.4,11.9,26.4,26.4v238.4C4141.9,4103.7,4130.1,4115.6,4115.5,4115.6z"/><path fill="#ffff" d="M2142.5,1122.9c-65.7,0-119.1-53.5-119.1-119.1s53.5-119.1,119.1-119.1s119.1,53.5,119.1,119.1    S2208.2,1122.9,2142.5,1122.9z M2142.5,937.6c-36.5,0-66.2,29.8-66.2,66.2c0,36.5,29.8,66.2,66.2,66.2s66.2-29.8,66.2-66.2    C2208.7,967.3,2179,937.6,2142.5,937.6z"/><path fill="#ffff" d="M1824.7,1228.8c-51.1,0-92.7-41.6-92.7-92.7s41.6-92.7,92.7-92.7s92.7,41.6,92.7,92.7S1875.7,1228.8,1824.7,1228.8z     M1824.7,1096.4c-21.9,0-39.7,17.8-39.7,39.7c0,21.9,17.8,39.7,39.7,39.7s39.7-17.8,39.7-39.7    C1864.3,1114.2,1846.6,1096.4,1824.7,1096.4z"/><path fill="#ffff" d="M3468.3,3877.2H3253c-64.8,0-117.4-52.7-117.4-117.4v-465.2c0-14.6,11.9-26.4,26.4-26.4h397.3c14.6,0,26.4,11.9,26.4,26.4    v465.2C3585.8,3824.5,3533.2,3877.2,3468.3,3877.2z M3188.6,3321v438.7c0,35.6,29,64.5,64.5,64.5h215.3c35.6,0,64.5-29,64.5-64.5    V3321H3188.6z"/><path fill="#ffff" d="M3655.5,3718.3h-69.7c-14.6,0-26.4-11.9-26.4-26.4c0-14.6,11.9-26.4,26.4-26.4h69.7c19.9,0,36.3-16.3,36.3-36.3v-112.9    c0-19.9-16.3-36.3-36.3-36.3h-96.1c-14.6,0-26.4-11.9-26.4-26.4s11.9-26.4,26.4-26.4h96.1c49.2,0,89.3,40,89.3,89.3v112.9    C3744.8,3678.2,3704.6,3718.3,3655.5,3718.3z"/><g><path fill="#ffff" d="M3137.5,1522.6c-7,0-13.7-2.7-18.7-7.8l-262.5-262.5c-6.6-6.6-9.2-16.2-7-25.2s9.2-16.2,18.1-18.9l373.1-110.6     c9.3-2.7,19.4-0.2,26.2,6.6c6.8,6.8,9.5,17,6.6,26.2l-110.6,373.1c-2.6,9-9.8,15.8-18.9,18.1     C3141.8,1522.3,3139.7,1522.6,3137.5,1522.6z M2925.1,1246.3l199.6,199.6l84-283.6L2925.1,1246.3z"/><path fill="#ffff" d="M2903.4,1756.7c-6.7,0-13.6-2.6-18.7-7.8c-10.4-10.4-10.4-27.1,0-37.5l215.3-215.3l-225-225l-205,205     c-10.4,10.4-27.1,10.4-37.5,0c-10.4-10.4-10.4-27.1,0-37.5l223.7-223.7c10.4-10.4,27.1-10.4,37.5,0l262.5,262.5     c5,5,7.8,11.7,7.8,18.7s-2.7,13.8-7.8,18.7l-234,234C2917,1754,2910.2,1756.7,2903.4,1756.7z"/><path fill="#ffff" d="M2731.4,1577.8c-6.7,0-13.6-2.6-18.7-7.8c-10.4-10.4-10.4-27.1,0-37.5l225.5-225.5c10.4-10.4,27.1-10.4,37.5,0     c10.4,10.4,10.4,27.1,0,37.5L2750.2,1570C2745,1575.2,2738.3,1577.8,2731.4,1577.8z"/><path fill="#ffff" d="M2814.4,1660.7c-6.7,0-13.6-2.6-18.7-7.8c-10.4-10.4-10.4-27.1,0-37.5l225.5-225.5c10.4-10.4,27.1-10.4,37.5,0     c10.4,10.4,10.4,27.1,0,37.5l-225.5,225.5C2828,1658.1,2821.1,1660.7,2814.4,1660.7z"/><path fill="#ffff" d="M3190,1304.2c-6.7,0-13.6-2.6-18.7-7.8l-102.5-102.4c-10.4-10.4-10.4-27.1,0-37.5c10.4-10.4,27.1-10.4,37.5,0     l102.5,102.4c10.4,10.4,10.4,27.1,0,37.5C3203.6,1301.6,3196.9,1304.2,3190,1304.2z"/></g><g><path fill="#ffff" d="M3788.2,2731.5c-6.7,0-13.6-2.6-18.7-7.8l-5.7-5.7c-38-38-88.4-64.9-149.8-79.9c-40.6-9.9-75.2-33.3-100.3-67.6     c-22.2-30.4-34-68.4-33.1-107c0.9-38.4,14.4-75.9,38-105.3c31.5-39.2,78-63.4,127.9-66.1c49.8-2.7,98.7,16,133.9,51.2l0,0     c23.6,23.6,39.9,53.1,47.1,85.6c12.7,56.5,40,107,79,146.1l5.8,5.8c5,5,7.8,11.7,7.8,18.7c0,7.1-2.7,13.8-7.8,18.7l-105.6,105.6     C3801.8,2729,3795,2731.5,3788.2,2731.5z M3656.3,2344.8c-2.3,0-4.4,0.1-6.7,0.2c-35.3,1.9-67,18.4-89.4,46.3     c-33.9,42.3-35.3,104.4-3.5,148c17.6,24.1,41.8,40.5,70.1,47.4c64.1,15.7,118.2,43.1,161.2,81.3l68.9-68.9     c-39.4-44.1-67.3-98.6-80.7-158.7c-5-22.6-16.4-43.2-32.8-59.7C3720,2357.7,3688.7,2344.8,3656.3,2344.8z"/><path fill="#ffff" d="M3867.4,2793.9c-17.1,0-34.2-6.5-47.3-19.5l-50.6-50.6c-10.4-10.4-10.4-27.1,0-37.5c10.4-10.4,27.1-10.4,37.5,0     l50.6,50.6c2.6,2.6,6.2,4.1,9.8,4.1s7.2-1.5,9.8-4.1l48.4-48.4c2.6-2.6,4.1-6.2,4.1-9.8s-1.5-7.2-4.1-9.8l-50.6-50.6     c-10.4-10.4-10.4-27.1,0-37.5c10.4-10.4,27.1-10.4,37.5,0l50.6,50.6c26.1,26.1,26.1,68.5,0,94.5l-48.4,48.4     C3901.6,2787.5,3884.5,2793.9,3867.4,2793.9z"/><path fill="#ffff" d="M3484.8,2322.6c-6.7,0-13.6-2.6-18.7-7.8l-66-66c-10.4-10.4-10.4-27.1,0-37.5c10.4-10.4,27.1-10.4,37.5,0l66,66     c10.4,10.4,10.4,27.1,0,37.5C3498.4,2319.9,3491.6,2322.6,3484.8,2322.6z"/><path fill="#ffff" d="M3814.6,2322.6c-6.7,0-13.6-2.6-18.7-7.8c-10.4-10.4-10.4-27.1,0-37.5l66-66c10.4-10.4,27.1-10.4,37.5,0     s10.4,27.1,0,37.5l-66,66C3828.2,2319.9,3821.4,2322.6,3814.6,2322.6z"/><path fill="#ffff" d="M3418.8,2718.4c-6.7,0-13.6-2.6-18.7-7.8c-10.4-10.4-10.4-27.1,0-37.5l66-66c10.4-10.4,27.1-10.4,37.5,0     c10.4,10.4,10.4,27.1,0,37.5l-66,66C3432.4,2715.7,3425.7,2718.4,3418.8,2718.4z"/><path fill="#ffff" d="M3638.7,2261.7c-14.6,0-26.4-11.9-26.4-26.4v-105.9c0-14.6,11.9-26.4,26.4-26.4s26.4,11.9,26.4,26.4v105.9     C3665.3,2249.8,3653.5,2261.7,3638.7,2261.7z"/><path fill="#ffff" d="M3426.9,2500.1H3321c-14.6,0-26.4-11.9-26.4-26.4c0-14.6,11.9-26.4,26.4-26.4h105.9c14.6,0,26.4,11.9,26.4,26.4     C3453.4,2488.2,3441.5,2500.1,3426.9,2500.1z"/></g><path fill="#ffff" d="M2990,1864.4c-66.1,0-130.3-13-190.7-38.5c-58.4-24.6-110.7-60-155.7-105s-80.3-97.4-105-155.7    c-25.5-60.4-38.5-124.6-38.5-190.7s13-130.3,38.5-190.7c24.6-58.4,60-110.7,105-155.7c45-45,97.4-80.3,155.7-105    c60.4-25.5,124.6-38.5,190.7-38.5c66.1,0,130.3,13,190.7,38.5c58.4,24.6,110.7,60,155.7,105c45,45,80.3,97.4,105,155.7    c25.5,60.4,38.5,124.6,38.5,190.7s-13,130.3-38.5,190.7c-24.6,58.4-60,110.7-105,155.7s-97.4,80.3-155.7,105    C3120.3,1851.5,3056.1,1864.4,2990,1864.4z M2990,937.6c-241,0-437,196.1-437,437s196.1,437,437,437c241,0,437-196.1,437-437    S3230.9,937.6,2990,937.6z"/><path fill="#ffff" d="M3652,2950.2c-66.1,0-130.3-13-190.7-38.5c-58.4-24.6-110.7-60-155.7-105c-45-45-80.3-97.4-105-155.7    c-25.5-60.4-38.5-124.6-38.5-190.7s13-130.3,38.5-190.7c24.6-58.4,60-110.7,105-155.7c45-45,97.4-80.3,155.7-105    c60.4-25.5,124.6-38.5,190.7-38.5s130.3,13,190.7,38.5c58.4,24.6,110.7,60,155.7,105c45,45,80.3,97.4,105,155.7    c25.5,60.4,38.5,124.6,38.5,190.7s-13,130.3-38.5,190.7c-24.6,58.4-60,110.7-105,155.7c-45,45-97.4,80.3-155.7,105    C3782.3,2937.2,3718.2,2950.2,3652,2950.2z M3652,2023.3c-241,0-437,196.1-437,437s196.1,437,437,437s437-196.1,437-437    S3893,2023.3,3652,2023.3z"/><g><path fill="#ffff" d="M1228.8,3877.2h-159.4c-61.3,0-117.6-30.8-150.7-82.4s-37.6-115.6-12.1-171.3v-0.1l218.7-471.4     c6.2-13.2,21.9-19,35.1-12.9c13.2,6.2,19,21.9,12.9,35.1l-218.5,471.3c-18,39.2-14.8,84.4,8.6,120.6c23.4,36.4,63,58,106.1,58     h159.4c14.6,0,26.4,11.9,26.4,26.4S1243.4,3877.2,1228.8,3877.2z"/><path fill="#ffff" d="M1305.8,2847.3c-3.6,0-7.4-0.8-11.1-2.4c-13.3-6-19.2-21.8-13-35.1l82.5-180c36.1-78.8,115.5-129.7,202.1-129.7h192.1     c14.6,0,26.4,11.9,26.4,26.4s-11.9,26.4-26.4,26.4h-192.2c-66,0-126.4,38.8-154,98.8l-82.5,180     C1325.5,2841.6,1315.9,2847.3,1305.8,2847.3z"/><path fill="#ffff" d="M2779.5,3877.2h-147.2c-14.6,0-26.4-11.9-26.4-26.4s11.9-26.4,26.4-26.4h147.2c43.2,0,82.9-21.7,106.1-58     c23.4-36.4,26.4-81.4,8.5-120.7l-203.7-444.7c-6-13.3-0.2-29.1,13-35.1c13.3-6,29.1-0.2,35.1,13l203.7,444.7     c25.5,55.7,21,119.8-12.1,171.3C2897.2,3846.4,2840.9,3877.2,2779.5,3877.2z"/><path fill="#ffff" d="M2543.4,2847.8c-10,0-19.6-5.7-24.1-15.5l-82.8-180.6c-27.5-60.1-87.9-98.8-154-98.8h-179.9c-14.6,0-26.4-11.9-26.4-26.4     s11.9-26.4,26.4-26.4h179.9c86.6,0,166,51,202.1,129.7l82.8,180.6c6,13.3,0.2,29.1-13,35.1     C2550.8,2847.1,2547.1,2847.8,2543.4,2847.8z"/><path fill="#ffff" d="M2087.3,2564.1c-14.6,0-26.3-11.7-26.4-26.3l-1.5-198.2c-0.1-14.6,11.6-26.6,26.3-26.7c0.1,0,0.1,0,0.2,0     c14.6,0,26.3,11.7,26.4,26.3l1.5,198.2c0.1,14.6-11.6,26.6-26.3,26.7C2087.5,2564.1,2087.4,2564.1,2087.3,2564.1z"/><path fill="#ffff" d="M1924.1,2675.6c-47.8,0-95-16.9-132.8-47.5c-36.3-29.3-57.9-67-57.9-100.9c0-14.6,11.9-26.4,26.4-26.4     s26.4,11.9,26.4,26.4c0,17.4,15,40.9,38.3,59.7c28,22.7,64.4,35.8,99.5,35.8c38,0,73.6-11.1,100.3-31     c24.2-18.1,37.5-41,37.5-64.4c0-14.6,11.9-26.4,26.4-26.4c14.6,0,26.4,11.9,26.4,26.4c0,39.9-21.4,78.9-58.7,106.8     C2020.3,2660.9,1973.4,2675.6,1924.1,2675.6z"/><path fill="#ffff" d="M2711.8,3744.7H1149.3c-14.6,0-26.4-11.9-26.4-26.4v-686.8c0-132.4,107.7-240.1,240.1-240.1h1135.4     c132.4,0,240.1,107.7,240.1,240.1v686.8C2738.4,3732.9,2726.5,3744.7,2711.8,3744.7z M1175.9,3691.8h1509.6v-660.4     c0-103.2-83.9-187.1-187.1-187.1H1363c-103.2,0-187.1,83.9-187.1,187.1L1175.9,3691.8L1175.9,3691.8z"/><path fill="#ffff" d="M2612.4,3877.2H1240.1c-87.7,0-158.9-71.3-158.9-158.9c0-14.6,11.9-26.4,26.4-26.4h1637.2c14.6,0,26.4,11.9,26.4,26.4     C2771.2,3805.9,2700,3877.2,2612.4,3877.2z M1137.5,3744.7c11.7,45.6,53.4,79.5,102.6,79.5h1372.3c49.2,0,90.7-33.9,102.6-79.5     H1137.5z"/><path fill="#ffff" d="M1930.6,3400.4c-51.1,0-92.7-41.6-92.7-92.7c0-51.1,41.6-92.7,92.7-92.7c51.1,0,92.7,41.6,92.7,92.7     C2023.3,3358.8,1981.8,3400.4,1930.6,3400.4z M1930.6,3268.1c-21.9,0-39.7,17.8-39.7,39.7c0,21.9,17.8,39.7,39.7,39.7     s39.7-17.8,39.7-39.7C1970.2,3285.9,1952.6,3268.1,1930.6,3268.1z"/><path fill="#ffff" d="M1930.6,2394.2c-47.2,0-93.6-8-137.6-23.7c-42.6-15.2-82.3-37.2-117.9-65.6c-71.1-56.5-122-136.1-143.4-223.9     c-2.3-9.5-4.3-19.3-5.9-28.8c-2.4-14.5,7.3-28,21.8-30.6c14.5-2.5,28,7.3,30.6,21.8c1.4,8.4,3.2,16.9,5.1,25.2     c39.1,160.5,181.9,272.7,347.4,272.7c176.9,0,325.5-126.7,353.1-301.1c0.7-4.7,1.4-9.5,1.9-14.1c1.7-14.5,14.9-25,29.4-23.3     c14.5,1.7,25,14.8,23.3,29.4c-0.7,5.4-1.4,10.8-2.3,16.2c-15.2,95.4-64,183-137.6,246.4C2124,2358.8,2029,2394.2,1930.6,2394.2z"/><path fill="#ffff" d="M1554.4,2102.8c-9.7,0-18.7-5.2-23.4-14.1c-1.5-2.8-36.8-70.1-59.4-161c-13.3-53.8-19.4-104.9-18-151.6     c1.8-59.8,16-113,42-157.9c21-36.3,47.5-67.9,78.8-94.4c29.9-25.1,63.2-44.2,96.3-55.3c99.1-33.1,233-27.4,340.6-22.8     c69.1,3,134.4,5.7,162.6-3.6c23.3-7.8,35.5-21,38.4-41.5c2.3-16.3-2.2-30.8-2.2-30.9c-3.9-11.6,0.8-24.4,11.2-30.9     c10.5-6.5,23.9-4.9,32.6,3.8c39.1,39.1,67.8,89.3,82.8,145c13.9,51.8,15.8,105.8,5.5,156.5c-16.5,80.4-61.6,140.7-123.6,165.5     c-67.6,27-166.3,15.2-270.9,2.6c-110.6-13.3-224.9-27-287.8,9.5c-14.9,8.7-43,38.2-63.5,138.6c-12.4,60.9-15.4,116.7-15.4,117.3     c-0.6,11.9-9.1,21.9-20.7,24.5C1558.1,2102.5,1556.3,2102.8,1554.4,2102.8z M1884.9,1495.3c-70.6,0-141.5,4.9-197.4,23.6     c-56.8,18.9-111.4,66-146,126c-49.2,85-37.3,193.3-18.6,269.2c5.2,21.1,11.2,40.9,17.3,58.8c1.4-7.5,2.7-15.3,4.3-23     c7.9-38.8,17.9-71.9,29.6-98.6c16.1-36.5,35.9-61.8,59.2-75.2c78.3-45.5,201.6-30.7,320.8-16.3c93.3,11.2,189.7,22.8,244.9,0.8     c45.3-18.1,78.5-64.4,91.4-127c13.9-67.7,1.1-140.4-32.7-199.4c-11.5,27.2-34.5,47.5-67,58.3c-37.4,12.4-101,9.8-181.5,6.4     C1970.1,1497,1927.6,1495.3,1884.9,1495.3z"/><path fill="#ffff" d="M2309.7,2068.8c-2.1,0-4.2-0.2-6.3-0.8c-10.8-2.6-18.8-11.7-20.1-22.9c-0.1-0.6-5.9-53.6-17.6-112.4     c-20.3-102.6-40.6-133.6-48.3-142.2c-9.8-10.8-9-27.6,1.8-37.4c10.8-9.8,27.6-9,37.4,1.8c24.1,26.6,44,81.4,61.1,167.7     c1.6,8.2,3.2,16.4,4.6,24.3c36.9-144.4-21.5-324.3-22.3-326.5c-4.6-13.9,2.8-28.8,16.8-33.5c13.9-4.7,28.8,2.8,33.5,16.8     c0.9,2.8,23.6,71.6,33.2,161c5.7,53,5.5,102.4-0.5,146.7c-7.6,56.9-25,105.8-51.3,145.3     C2326.7,2064.5,2318.4,2068.8,2309.7,2068.8z"/></g><g><path fill="#ffff" d="M2988.7,2447h-447.8c-66.3,0-120.4-54-120.4-120.4v-262.4c0-66.3,54-120.4,120.4-120.4h447.8     c66.3,0,120.4,54,120.4,120.4v262.4C3109.1,2393.1,3055.1,2447,2988.7,2447z M2540.9,1996.9c-37.2,0-67.4,30.2-67.4,67.4v262.4     c0,37.2,30.2,67.4,67.4,67.4h447.8c37.2,0,67.4-30.2,67.4-67.4v-262.4c0-37.2-30.2-67.4-67.4-67.4H2540.9z"/><path fill="#ffff" d="M2767.7,2440.4c-6.7,0-13.6-2.6-18.7-7.8l-115.4-115.4l-103.9,103.9c-10.4,10.4-27.1,10.4-37.5,0     c-10.4-10.4-10.4-27.1,0-37.5l122.7-122.7c10.4-10.4,27.1-10.4,37.5,0l134.2,134.2c10.4,10.4,10.4,27.1,0,37.5     C2781.2,2437.8,2774.5,2440.4,2767.7,2440.4z"/><path fill="#ffff" d="M2701.3,2364.5c-6.7,0-13.6-2.6-18.7-7.8c-10.4-10.4-10.4-27.1,0-37.5l222.4-222.4c10.4-10.4,27.1-10.4,37.5,0     l153.6,153.6c10.4,10.4,10.4,27.1,0,37.5c-10.4,10.4-27.1,10.4-37.5,0l-134.7-134.7L2720,2356.8     C2714.9,2362,2708.2,2364.5,2701.3,2364.5z"/><path fill="#ffff" d="M2658.9,2208.7c-43.8,0-79.5-35.7-79.5-79.5s35.7-79.5,79.5-79.5s79.5,35.7,79.5,79.5S2702.7,2208.7,2658.9,2208.7z      M2658.9,2102.8c-14.6,0-26.4,11.9-26.4,26.4c0,14.6,11.9,26.4,26.4,26.4s26.4-11.9,26.4-26.4     C2685.4,2114.6,2673.5,2102.8,2658.9,2102.8z"/></g></g></g></svg>