<?xml version="1.0" encoding="UTF-8"?>
<svg version="1.1" xmlns="http://www.w3.org/2000/svg" width="50" height="50">
<path d="M0 0 C0.85464844 -0.01675781 1.70929687 -0.03351562 2.58984375 -0.05078125 C5.56077644 0.38570649 6.93915524 1.20886146 9.0625 3.3125 C9.0625 4.3025 9.0625 5.2925 9.0625 6.3125 C14.3425 6.3125 19.6225 6.3125 25.0625 6.3125 C25.0625 19.5125 25.0625 32.7125 25.0625 46.3125 C8.5625 46.3125 -7.9375 46.3125 -24.9375 46.3125 C-24.9375 33.1125 -24.9375 19.9125 -24.9375 6.3125 C-19.6575 6.3125 -14.3775 6.3125 -8.9375 6.3125 C-8.6075 4.9925 -8.2775 3.6725 -7.9375 2.3125 C-4.73125113 0.17500075 -3.71291897 0.01675001 0 0 Z M-5.9375 6.3125 C-1.9775 6.3125 1.9825 6.3125 6.0625 6.3125 C4.47308594 3.171586 4.47308594 3.171586 2.1875 2.9140625 C1.48625 2.92179688 0.785 2.92953125 0.0625 2.9375 C-0.989375 2.92589844 -0.989375 2.92589844 -2.0625 2.9140625 C-4.34808594 3.171586 -4.34808594 3.171586 -5.9375 6.3125 Z M-22.9375 9.3125 C-23.03736975 12.15585048 -23.07627881 14.96947163 -23.0625 17.8125 C-23.06636719 18.61042969 -23.07023437 19.40835937 -23.07421875 20.23046875 C-23.4464961 24.0808932 -23.4464961 24.0808932 -21.9375 27.3125 C-19.07482433 27.38575168 -16.236781 27.40488205 -13.375 27.375 C-12.16553711 27.36823242 -12.16553711 27.36823242 -10.93164062 27.36132812 C-8.93356244 27.34950518 -6.93552217 27.33156914 -4.9375 27.3125 C-4.9375 26.3225 -4.9375 25.3325 -4.9375 24.3125 C-1.6375 24.3125 1.6625 24.3125 5.0625 24.3125 C5.0625 25.3025 5.0625 26.2925 5.0625 27.3125 C7.87506281 27.33934312 10.68737241 27.35926188 13.5 27.375 C14.30244141 27.38337891 15.10488281 27.39175781 15.93164062 27.40039062 C17.97545221 27.4090143 20.01933902 27.3647815 22.0625 27.3125 C23.9480253 25.4269747 23.19496689 22.73481169 23.19921875 20.23046875 C23.19341797 19.03357422 23.19341797 19.03357422 23.1875 17.8125 C23.19136719 17.01457031 23.19523437 16.21664063 23.19921875 15.39453125 C23.5714961 11.5441068 23.5714961 11.5441068 22.0625 8.3125 C20.68640118 8.21454689 19.30536118 8.18451912 17.92578125 8.18310547 C17.04817139 8.17995331 16.17056152 8.17680115 15.26635742 8.17355347 C14.31220947 8.1755777 13.35806152 8.17760193 12.375 8.1796875 C11.40216064 8.17873077 10.42932129 8.17777405 9.42700195 8.17678833 C7.365722 8.17610642 5.30443992 8.17796147 3.24316406 8.18212891 C0.07612312 8.187477 -3.090776 8.18218428 -6.2578125 8.17578125 C-8.25520865 8.17644203 -10.25260471 8.17772319 -12.25 8.1796875 C-13.20414795 8.17766327 -14.1582959 8.17563904 -15.14135742 8.17355347 C-16.45777222 8.17828171 -16.45777222 8.17828171 -17.80078125 8.18310547 C-18.57719971 8.18390106 -19.35361816 8.18469666 -20.15356445 8.18551636 C-21.96183662 8.11846458 -21.96183662 8.11846458 -22.9375 9.3125 Z M-1.9375 26.3125 C-1.9375 27.6325 -1.9375 28.9525 -1.9375 30.3125 C-0.2875 29.9825 1.3625 29.6525 3.0625 29.3125 C2.7325 28.3225 2.4025 27.3325 2.0625 26.3125 C0.7425 26.3125 -0.5775 26.3125 -1.9375 26.3125 Z M-22.9375 29.3125 C-22.958125 31.601875 -22.97875 33.89125 -23 36.25 C-23.01160156 37.53777344 -23.02320312 38.82554688 -23.03515625 40.15234375 C-23.30282549 43.17548403 -23.30282549 43.17548403 -21.9375 44.3125 C-20.56140118 44.41045311 -19.18036118 44.44048088 -17.80078125 44.44189453 C-16.48436646 44.44662277 -16.48436646 44.44662277 -15.14135742 44.45144653 C-14.18720947 44.4494223 -13.23306152 44.44739807 -12.25 44.4453125 C-10.79074097 44.44674759 -10.79074097 44.44674759 -9.30200195 44.44821167 C-7.240722 44.44889358 -5.17943992 44.44703853 -3.11816406 44.44287109 C0.04887688 44.437523 3.215776 44.44281572 6.3828125 44.44921875 C8.38020865 44.44855797 10.37760471 44.44727681 12.375 44.4453125 C13.32914795 44.44733673 14.2832959 44.44936096 15.26635742 44.45144653 C16.14396729 44.44829437 17.02157715 44.44514221 17.92578125 44.44189453 C18.70219971 44.44109894 19.47861816 44.44030334 20.27856445 44.43948364 C22.08683662 44.50653542 22.08683662 44.50653542 23.0625 43.3125 C23.13521741 40.95936445 23.14620868 38.60416332 23.125 36.25 C23.104375 33.960625 23.08375 31.67125 23.0625 29.3125 C17.1225 29.3125 11.1825 29.3125 5.0625 29.3125 C5.0625 30.3025 5.0625 31.2925 5.0625 32.3125 C1.7625 32.3125 -1.5375 32.3125 -4.9375 32.3125 C-4.9375 31.3225 -4.9375 30.3325 -4.9375 29.3125 C-10.8775 29.3125 -16.8175 29.3125 -22.9375 29.3125 Z " fill="#FD9A01" transform="translate(24.9375,1.6875)"/>
</svg>
